<svg width="60" height="60" viewBox="0 0 60 60" fill="none" xmlns="http://www.w3.org/2000/svg">
<circle cx="29.5" cy="29.5" r="27.5" fill="#1C692A"/>
<path d="M23.2258 28.0645V26.129H36.7742V39.6774C36.7727 40.1903 36.5683 40.6817 36.2056 41.0443C35.843 41.407 35.3516 41.6114 34.8387 41.6129H33.542C33.0335 41.6125 32.5299 41.7123 32.06 41.9066C31.59 42.1008 31.163 42.3858 30.8033 42.7452L30 43.5484L29.1968 42.7452C28.837 42.3858 28.41 42.1008 27.9401 41.9066C27.4702 41.7123 26.9666 41.6125 26.4581 41.6129H25.1613C24.6485 41.6114 24.1571 41.407 23.7944 41.0443C23.4318 40.6817 23.2274 40.1903 23.2258 39.6774V28.0645Z" fill="#442E19"/>
<path d="M20.3225 47.4194L22.258 46.4517V49.3549L12.5805 52.2581L12.4644 52.3162L11.4386 50.4194L11.6128 50.3226L20.3225 47.4194Z" fill="#D79D44"/>
<path d="M49.3548 50.3226L47.4194 52.2581L37.7419 49.3549V46.4517L39.6774 47.4194L48.1742 50.2549L48.2032 50.1484C48.5759 50.2651 48.9643 50.3238 49.3548 50.3226Z" fill="#D79D44"/>
<path d="M25.1613 14.5162C26.4623 14.838 27.6271 15.5659 28.4866 16.5943C29.3462 17.6226 29.8559 18.898 29.9419 20.2355C29.9806 20.8452 30 21.5129 30 22.2581V26.1291H25.1613C24.3913 26.1291 23.6528 25.8232 23.1084 25.2787C22.5639 24.7343 22.2581 23.9958 22.2581 23.2259C23.8645 23.2259 25.1613 22.3646 25.1613 21.2904C25.1613 19.5484 23.7968 17.8162 22.2871 16.4226C21.086 15.3371 19.7796 14.3742 18.3871 13.5484L18.8903 13.2968C19.0415 13.221 19.1965 13.1532 19.3548 13.0936C20.1674 12.7549 21.039 12.5806 21.9193 12.5807H27.0968L25.1613 14.5162Z" fill="#FFD45D"/>
<path d="M40.6452 13.0936C40.8034 13.1532 40.9585 13.221 41.1097 13.2968L41.6129 13.5484C40.2204 14.3742 38.9139 15.3371 37.7129 16.4226C36.2032 17.8162 34.8387 19.5484 34.8387 21.2904C34.8387 22.3646 36.1355 23.2259 37.7419 23.2259C37.7419 23.9958 37.4361 24.7343 36.8916 25.2787C36.3471 25.8232 35.6087 26.1291 34.8387 26.1291H30V22.2581C30 21.5129 30.0194 20.8452 30.0581 20.2355C30.1441 18.898 30.6538 17.6226 31.5133 16.5943C32.3729 15.5659 33.5376 14.838 34.8387 14.5162L32.9032 12.5807H38.0806C38.961 12.5806 39.8326 12.7549 40.6452 13.0936Z" fill="#FFD45D"/>
<path d="M18.3871 13.5483C19.7796 14.3741 21.0861 15.337 22.2871 16.4225L22.2581 16.4516H16.4517C16.4517 13.5483 18.3871 13.5483 18.3871 13.5483Z" fill="#F0AF4C"/>
<path d="M43.5484 16.4516H37.7419L37.7129 16.4225C38.9139 15.337 40.2204 14.3741 41.6129 13.5483C41.6129 13.5483 43.5484 13.5483 43.5484 16.4516Z" fill="#F0AF4C"/>
<path d="M33.871 5.80642C33.8566 6.85725 33.5037 7.87542 32.8645 8.70965H32.9032V9.67739H27.0968V8.70965H27.1355C26.4963 7.87542 26.1434 6.85725 26.129 5.80642C26.129 4.19997 27.0968 2.9032 30 2.9032C32.9032 2.9032 33.871 4.19997 33.871 5.80642Z" fill="#FFD45D"/>
<path d="M24.1064 10.4613L23.2258 12.5807H21.9193C21.039 12.5806 20.1674 12.7549 19.3548 13.0936V12.5807L18.4742 10.4613C18.4176 10.3298 18.388 10.1883 18.3871 10.0452C18.4357 9.64954 18.6369 9.28852 18.9478 9.03905C19.2588 8.78959 19.6548 8.67142 20.0516 8.70971H22.529C22.9258 8.67142 23.3219 8.78959 23.6328 9.03905C23.9437 9.28852 24.1449 9.64954 24.1935 10.0452C24.1926 10.1883 24.163 10.3298 24.1064 10.4613Z" fill="#FFD45D"/>
<path d="M41.6128 10.0452C41.6119 10.1883 41.5823 10.3298 41.5258 10.4613L40.6451 12.5807V13.0936C39.8325 12.7549 38.9609 12.5806 38.0806 12.5807H36.7741L35.8935 10.4613C35.8369 10.3298 35.8073 10.1883 35.8064 10.0452C35.855 9.64954 36.0562 9.28852 36.3671 9.03905C36.6781 8.78959 37.0741 8.67142 37.4709 8.70971H39.9483C40.3451 8.67142 40.7412 8.78959 41.0521 9.03905C41.363 9.28852 41.5642 9.64954 41.6128 10.0452Z" fill="#FFD45D"/>
<path d="M17.4193 30.9677H14.5161L15.4838 28.0645C13.5483 28.0645 13.5483 24.1935 13.5483 24.1935H16.4516C15.0677 23.4968 14.6709 20.8161 14.5548 19.3548C14.5161 18.7742 14.5161 18.3871 14.5161 18.3871L19.3548 23.2258C19.7549 23.6086 20.0124 24.1166 20.0846 24.6656C20.1567 25.2147 20.0392 25.7719 19.7516 26.2452C19.6127 26.4892 19.4152 26.6948 19.177 26.8435C18.9388 26.9922 18.6673 27.0792 18.387 27.0968C18.387 27.0968 18.387 30.9677 23.2258 28.0645V31.9355H21.2903L19.3548 32.9032L17.4193 30.9677Z" fill="#FFD45D"/>
<path d="M43.5484 24.1935H46.4516C46.4516 24.1935 46.4516 28.0645 44.5161 28.0645L45.4838 30.9677H42.5806L40.6451 32.9032L38.7097 31.9355H36.7742V28.0645C41.6129 30.9677 41.6129 27.0968 41.6129 27.0968C41.3326 27.0792 41.0611 26.9922 40.8229 26.8435C40.5847 26.6948 40.3873 26.4892 40.2484 26.2452C39.9607 25.7719 39.8432 25.2147 39.9154 24.6656C39.9875 24.1166 40.245 23.6086 40.6451 23.2258L45.4838 18.3871C45.4838 18.3871 45.4838 18.7742 45.4451 19.3548C45.329 20.8161 44.9322 23.4968 43.5484 24.1935Z" fill="#FFD45D"/>
<path d="M45.4839 46.4517H53.2258C53.2258 47.4783 52.818 48.4629 52.092 49.1888C51.3661 49.9148 50.3815 50.3226 49.3549 50.3226C48.9643 50.3238 48.5759 50.2651 48.2032 50.1484C47.415 49.9028 46.7259 49.4116 46.2367 48.7465C45.7474 48.0814 45.4837 47.2773 45.4839 46.4517Z" fill="#FFD45D"/>
<path d="M28.6452 50.6515C28.7517 49.7709 28.8388 48.9677 28.9162 48.387C28.9839 47.787 29.0323 47.4193 29.0323 47.4193L29.071 47.3903C29.3614 47.729 29.6807 48.0677 30.0001 48.387C30.3194 48.0677 30.6388 47.729 30.9291 47.3903L30.9678 47.4193C30.9678 47.4193 31.0162 47.787 31.0839 48.387C31.1613 48.9677 31.2484 49.7709 31.3549 50.6515C31.6259 53.0128 31.9355 55.9935 31.9355 57.0967L30.0001 59.9999L28.0646 57.0967C28.0646 55.9935 28.3743 53.0128 28.6452 50.6515Z" fill="#F0AF4C"/>
<path d="M30 48.3871C29.6806 48.0678 29.3613 47.729 29.0709 47.3903C27.5543 45.6179 26.2427 43.6798 25.1613 41.6129H26.458C26.9665 41.6125 27.4701 41.7123 27.94 41.9066C28.4099 42.1009 28.837 42.3858 29.1967 42.7452L30 43.5484L30.8032 42.7452C31.163 42.3858 31.59 42.1009 32.0599 41.9066C32.5298 41.7123 33.0334 41.6125 33.5419 41.6129H34.8387C33.7572 43.6798 32.4457 45.6179 30.929 47.3903C30.6387 47.729 30.3193 48.0678 30 48.3871Z" fill="#F0AF4C"/>
<path d="M53.2258 46.4517H45.4839C45.4839 45.425 45.8917 44.4404 46.6177 43.7145C47.3436 42.9885 48.3282 42.5807 49.3549 42.5807C50.3815 42.5807 51.3661 42.9885 52.092 43.7145C52.818 44.4404 53.2258 45.425 53.2258 46.4517Z" fill="#FFE96B"/>
<path d="M28.9161 48.3871C28.8387 48.9677 28.7516 49.771 28.6451 50.6516C27.7548 51.4451 25.5871 53.429 25.5871 54.1935C25.5871 55.1613 26.129 55.1613 26.129 55.1613L25.1613 56.129C25.3498 57.1364 25.6754 58.1132 26.129 59.0322C23.2742 59.0322 21.2903 57.3 21.2903 55.1613C21.2903 53.2548 26.3032 48.5226 28.9161 48.3871Z" fill="#FFD45D"/>
<path d="M31.3548 50.6516C31.2484 49.771 31.1613 48.9677 31.0839 48.3871C33.6968 48.5226 38.7097 53.2548 38.7097 55.1613C38.7097 57.3 36.7258 59.0322 33.871 59.0322C34.3246 58.1132 34.6502 57.1364 34.8387 56.129L33.871 55.1613C33.871 55.1613 34.4129 55.1613 34.4129 54.1935C34.4129 53.429 32.2452 51.4451 31.3548 50.6516Z" fill="#FFD45D"/>
<path d="M22.2581 46.4516L20.3226 47.4193L19.3549 46.4516C18.3105 46.4363 17.2964 46.0982 16.4517 45.4838C17.2936 45.4838 18.3871 42.5806 18.3871 42.5806C18.3871 39.6774 23.2259 39.6774 23.2259 39.6774C23.2274 40.1902 23.4318 40.6816 23.7944 41.0443C24.1571 41.4069 24.6485 41.6113 25.1613 41.6129C22.2581 41.6129 25.1613 46.4516 25.1613 46.4516C23.2259 48.387 22.2581 46.4516 22.2581 46.4516Z" fill="#F0AF4C"/>
<path d="M34.8387 46.4516C34.8387 46.4516 37.742 41.6129 34.8387 41.6129C35.3516 41.6113 35.843 41.4069 36.2056 41.0443C36.5683 40.6816 36.7727 40.1902 36.7742 39.6774C36.7742 39.6774 41.6129 39.6774 41.6129 42.5806C41.6129 42.5806 42.6968 45.4838 43.5484 45.4838C42.7037 46.0982 41.6896 46.4363 40.6452 46.4516L39.6775 47.4193L37.742 46.4516C37.742 46.4516 36.7742 48.387 34.8387 46.4516Z" fill="#F0AF4C"/>
<path d="M19.3548 32.9033L21.2903 31.9355H23.2258V35.8065H19.3548C19.3548 37.742 15.4839 39.6775 15.4839 39.6775C14.5161 38.7097 14.5161 33.871 14.5161 33.871C13.5484 35.8065 8.70968 36.7742 8.70968 36.7742C8.70968 34.8387 11.6129 31.9355 11.6129 31.9355C9.39757 32.5076 7.12561 32.8322 4.83871 32.9033C5.80645 30.9678 9.67742 29.0323 9.67742 29.0323C8.03057 29.0656 6.39658 28.736 4.89136 28.0671C3.38615 27.3981 2.0466 26.406 0.967742 25.1613H8.70968C2.90323 24.1936 0 18.3871 0 18.3871L8.70968 21.2904C1.93548 17.4194 1.93548 12.5807 1.93548 12.5807L7.74194 16.4517C6.9044 15.365 6.37296 14.074 6.20279 12.7126C6.03262 11.3512 6.22991 9.96911 6.77419 8.70972L14.5161 19.3549H14.5548C14.671 20.8162 15.0677 23.4968 16.4516 24.1936H13.5484C13.5484 24.1936 13.5484 28.0646 15.4839 28.0646L14.5161 30.9678H17.4194L19.3548 32.9033Z" fill="#F0AF4C"/>
<path d="M40.6451 35.8065H36.7742V31.9355H38.7097L40.6451 32.9033L42.5806 30.9678H45.4838L44.5161 28.0646C46.4516 28.0646 46.4516 24.1936 46.4516 24.1936H43.5484C44.9322 23.4968 45.329 20.8162 45.4451 19.3549H45.4838L53.2258 8.70972C53.7701 9.96911 53.9674 11.3512 53.7972 12.7126C53.627 14.074 53.0956 15.365 52.258 16.4517L58.0645 12.5807C58.0645 12.5807 58.0645 17.4194 51.2903 21.2904L60 18.3871C60 18.3871 57.0968 24.1936 51.2903 25.1613H59.0322C57.9534 26.406 56.6138 27.3981 55.1086 28.0671C53.6034 28.736 51.9694 29.0656 50.3226 29.0323C50.3226 29.0323 54.1935 30.9678 55.1613 32.9033C52.8744 32.8322 50.6024 32.5076 48.3871 31.9355C48.3871 31.9355 51.2903 34.8387 51.2903 36.7742C51.2903 36.7742 46.4516 35.8065 45.4838 33.871C45.4838 33.871 45.4838 38.7097 44.5161 39.6775C44.5161 39.6775 40.6451 37.742 40.6451 35.8065Z" fill="#F0AF4C"/>
<path d="M15.3688 55.6703L8.83267 43.5319L9.5759 42.0454C9.69016 41.8158 9.70861 41.5502 9.62719 41.307L8.65945 38.4038C8.61929 38.2831 8.55574 38.1714 8.47244 38.0753C8.38913 37.9791 8.2877 37.9003 8.17394 37.8433C8.06017 37.7863 7.93629 37.7523 7.80939 37.7432C7.68248 37.7341 7.55502 37.7501 7.43429 37.7903C7.31355 37.8304 7.20191 37.894 7.10574 37.9773C7.00957 38.0606 6.93075 38.162 6.87377 38.2758C6.75871 38.5055 6.73963 38.7716 6.82074 39.0154L7.66074 41.5383L7.14396 42.5806H5.35654L3.71138 40.108C3.56894 39.8945 3.34749 39.7462 3.09577 39.696C2.84405 39.6457 2.58267 39.6975 2.36912 39.8399C2.15558 39.9824 2.00737 40.2038 1.9571 40.4555C1.90683 40.7073 1.95861 40.9686 2.10106 41.1822L4.03654 44.0854C4.12467 44.2175 4.24395 44.3259 4.38386 44.401C4.52377 44.4761 4.68001 44.5156 4.8388 44.5161H7.16138L13.6607 56.5877C13.7824 56.8138 13.9889 56.9823 14.2348 57.0562C14.4807 57.13 14.7459 57.1032 14.972 56.9815C15.1981 56.8599 15.3667 56.6534 15.4405 56.4075C15.5144 56.1616 15.4876 55.8964 15.3659 55.6703H15.3688Z" fill="#D79D44"/>
<path d="M29.1967 44.6807L30 45.4839L30.8032 44.6807C31.163 44.3213 31.59 44.0363 32.0599 43.8421C32.5298 43.6478 33.0334 43.548 33.5419 43.5484H33.7354C34.44 42.4094 34.8387 41.6129 34.8387 41.6129H33.5419C33.0334 41.6125 32.5298 41.7123 32.0599 41.9066C31.59 42.1009 31.163 42.3858 30.8032 42.7452L30 43.5484L29.1967 42.7452C28.837 42.3858 28.4099 42.1009 27.94 41.9066C27.4701 41.7123 26.9665 41.6125 26.458 41.6129H25.1613C25.1613 41.6129 25.56 42.4094 26.2654 43.5484H26.459C27.4856 43.5478 28.4704 43.9551 29.1967 44.6807Z" fill="#D79D44"/>
<path d="M50.1387 48.213C49.2131 47.9214 48.4308 47.2928 47.9468 46.4517H45.4839C45.4837 47.2773 45.7474 48.0814 46.2367 48.7465C46.7259 49.4116 47.415 49.9028 48.2032 50.1484C48.5759 50.2651 48.9643 50.3238 49.3549 50.3226C50.0997 50.3222 50.8286 50.1065 51.4537 49.7015C52.0788 49.2964 52.5736 48.7194 52.8784 48.0397C52.3798 48.2671 51.8384 48.3855 51.2903 48.3871C50.8998 48.3883 50.5114 48.3296 50.1387 48.213Z" fill="#F0AF4C"/>
<path d="M47.4194 44.5162C47.421 43.9681 47.5394 43.4267 47.7668 42.9281C47.0871 43.2329 46.5101 43.7277 46.1051 44.3528C45.7 44.9779 45.4843 45.7068 45.4839 46.4516H47.9468C47.6025 45.8647 47.4204 45.1967 47.4194 44.5162Z" fill="#FFD45D"/>
<path d="M30.9677 0.967742H30.4838V0.483871C30.4838 0.35554 30.4328 0.232466 30.3421 0.141723C30.2514 0.0509791 30.1283 0 30 0C29.8716 0 29.7485 0.0509791 29.6578 0.141723C29.5671 0.232466 29.5161 0.35554 29.5161 0.483871V0.967742H29.0322C28.9039 0.967742 28.7808 1.01872 28.6901 1.10946C28.5993 1.20021 28.5483 1.32328 28.5483 1.45161C28.5483 1.57994 28.5993 1.70302 28.6901 1.79376C28.7808 1.8845 28.9039 1.93548 29.0322 1.93548H29.5161V2.41935C29.5161 2.54769 29.5671 2.67076 29.6578 2.7615C29.7485 2.85225 29.8716 2.90323 30 2.90323C30.1283 2.90323 30.2514 2.85225 30.3421 2.7615C30.4328 2.67076 30.4838 2.54769 30.4838 2.41935V1.93548H30.9677C31.096 1.93548 31.2191 1.8845 31.3098 1.79376C31.4006 1.70302 31.4516 1.57994 31.4516 1.45161C31.4516 1.32328 31.4006 1.20021 31.3098 1.10946C31.2191 1.01872 31.096 0.967742 30.9677 0.967742Z" fill="#FFD45D"/>
<path d="M39.6774 6.77414H39.1935V6.29027C39.1935 6.16194 39.1426 6.03886 39.0518 5.94812C38.9611 5.85738 38.838 5.8064 38.7097 5.8064C38.5813 5.8064 38.4583 5.85738 38.3675 5.94812C38.2768 6.03886 38.2258 6.16194 38.2258 6.29027V6.77414H37.7419C37.6136 6.77414 37.4905 6.82512 37.3998 6.91586C37.309 7.0066 37.2581 7.12968 37.2581 7.25801C37.2581 7.38634 37.309 7.50941 37.3998 7.60016C37.4905 7.6909 37.6136 7.74188 37.7419 7.74188H38.2258V8.22575C38.2258 8.35408 38.2768 8.47716 38.3675 8.5679C38.4583 8.65864 38.5813 8.70962 38.7097 8.70962C38.838 8.70962 38.9611 8.65864 39.0518 8.5679C39.1426 8.47716 39.1935 8.35408 39.1935 8.22575V7.74188H39.6774C39.8057 7.74188 39.9288 7.6909 40.0196 7.60016C40.1103 7.50941 40.1613 7.38634 40.1613 7.25801C40.1613 7.12968 40.1103 7.0066 40.0196 6.91586C39.9288 6.82512 39.8057 6.77414 39.6774 6.77414Z" fill="#FFD45D"/>
<path d="M50.3226 40.6451H49.8387V40.1612C49.8387 40.0329 49.7877 39.9098 49.697 39.8191C49.6062 39.7283 49.4831 39.6774 49.3548 39.6774C49.2265 39.6774 49.1034 39.7283 49.0127 39.8191C48.9219 39.9098 48.8709 40.0329 48.8709 40.1612V40.6451H48.3871C48.2587 40.6451 48.1357 40.6961 48.0449 40.7868C47.9542 40.8776 47.9032 41.0007 47.9032 41.129C47.9032 41.2573 47.9542 41.3804 48.0449 41.4711C48.1357 41.5619 48.2587 41.6129 48.3871 41.6129H48.8709V42.0967C48.8709 42.2251 48.9219 42.3481 49.0127 42.4389C49.1034 42.5296 49.2265 42.5806 49.3548 42.5806C49.4831 42.5806 49.6062 42.5296 49.697 42.4389C49.7877 42.3481 49.8387 42.2251 49.8387 42.0967V41.6129H50.3226C50.4509 41.6129 50.574 41.5619 50.6647 41.4711C50.7554 41.3804 50.8064 41.2573 50.8064 41.129C50.8064 41.0007 50.7554 40.8776 50.6647 40.7868C50.574 40.6961 50.4509 40.6451 50.3226 40.6451Z" fill="#FFD45D"/>
<path d="M6.20901 39.4558L5.9032 39.6581L5.70965 39.3552C5.68415 39.3133 5.65044 39.2769 5.61054 39.2484C5.57063 39.2198 5.52537 39.1996 5.47746 39.189C5.42956 39.1784 5.38 39.1776 5.33178 39.1866C5.28355 39.1957 5.23765 39.2144 5.19683 39.2416C5.15602 39.2688 5.12113 39.304 5.09427 39.3451C5.06741 39.3862 5.04914 39.4322 5.04054 39.4805C5.03195 39.5289 5.03321 39.5784 5.04425 39.6262C5.0553 39.674 5.0759 39.7191 5.10482 39.7587L5.30707 40.0607L5.00417 40.262C4.92833 40.3173 4.87681 40.3998 4.86037 40.4922C4.84392 40.5846 4.86383 40.6798 4.91592 40.7579C4.96802 40.836 5.04828 40.8909 5.13993 40.9112C5.23158 40.9315 5.32752 40.9156 5.40772 40.8668L5.70965 40.6645L5.91094 40.9674C5.96626 41.0433 6.04875 41.0948 6.14117 41.1112C6.23358 41.1277 6.32878 41.1078 6.40686 41.0557C6.48495 41.0036 6.53988 40.9233 6.56018 40.8317C6.58047 40.74 6.56457 40.6441 6.51578 40.5639L6.30965 40.2581L6.61256 40.0568C6.65448 40.0313 6.6908 39.9976 6.71936 39.9577C6.74791 39.9178 6.7681 39.8725 6.77871 39.8246C6.78932 39.7767 6.79013 39.7271 6.7811 39.6789C6.77206 39.6307 6.75336 39.5848 6.72613 39.544C6.6989 39.5032 6.66369 39.4683 6.62263 39.4414C6.58157 39.4146 6.5355 39.3963 6.48719 39.3877C6.43889 39.3791 6.38934 39.3803 6.34153 39.3914C6.29373 39.4024 6.24865 39.423 6.20901 39.452V39.4558Z" fill="#FFD45D"/>
<path d="M22.2581 6.77414H21.7742V6.29027C21.7742 6.16194 21.7233 6.03886 21.6325 5.94812C21.5418 5.85738 21.4187 5.8064 21.2904 5.8064C21.162 5.8064 21.039 5.85738 20.9482 5.94812C20.8575 6.03886 20.8065 6.16194 20.8065 6.29027V6.77414H20.3226C20.1943 6.77414 20.0712 6.82512 19.9805 6.91586C19.8897 7.0066 19.8387 7.12968 19.8387 7.25801C19.8387 7.38634 19.8897 7.50941 19.9805 7.60016C20.0712 7.6909 20.1943 7.74188 20.3226 7.74188H20.8065V8.22575C20.8065 8.35408 20.8575 8.47716 20.9482 8.5679C21.039 8.65864 21.162 8.70962 21.2904 8.70962C21.4187 8.70962 21.5418 8.65864 21.6325 8.5679C21.7233 8.47716 21.7742 8.35408 21.7742 8.22575V7.74188H22.2581C22.3864 7.74188 22.5095 7.6909 22.6002 7.60016C22.691 7.50941 22.742 7.38634 22.742 7.25801C22.742 7.12968 22.691 7.0066 22.6002 6.91586C22.5095 6.82512 22.3864 6.77414 22.2581 6.77414Z" fill="#FFD45D"/>
<path d="M30.9678 49.3548H31.202C31.1604 48.9928 31.1207 48.6638 31.0839 48.387C31.0162 47.787 30.9678 47.4193 30.9678 47.4193L30.9291 47.3903C30.6388 47.729 30.3194 48.0677 30.0001 48.387C29.6807 48.0677 29.3614 47.729 29.071 47.3903L29.0323 47.4193C29.0323 47.4193 28.9839 47.787 28.9162 48.387C28.8388 48.9677 28.7517 49.7709 28.6452 50.6515C28.3743 53.0128 28.0646 55.9935 28.0646 57.0967L30.0001 59.9999V50.3225C30.0001 50.0659 30.102 49.8197 30.2835 49.6382C30.465 49.4567 30.7111 49.3548 30.9678 49.3548Z" fill="#D79D44"/>
<path d="M27.0968 49.859C27.0974 50.0003 27.0667 50.1399 27.007 50.2679C26.9473 50.3959 26.8599 50.5091 26.7513 50.5993C25.8019 51.3919 23.2258 53.76 23.2258 56.129C23.1903 56.8575 23.4456 57.5703 23.9356 58.1106C24.4256 58.6509 25.1102 58.9744 25.8387 59.01C25.9355 59.0148 26.0323 59.0322 26.129 59.0322C25.6754 58.1132 25.3498 57.1364 25.1613 56.129L26.129 55.1613C26.129 55.1613 25.5871 55.1613 25.5871 54.1935C25.5871 53.429 27.7548 51.4451 28.6452 50.6516C28.7516 49.771 28.8387 48.9677 28.9161 48.3871C28.2759 48.4582 27.6568 48.6591 27.0968 48.9774V49.859Z" fill="#F0AF4C"/>
<path d="M36.7742 56.129C36.7742 53.76 34.1981 51.3871 33.2487 50.5993C33.1401 50.5091 33.0527 50.3959 32.993 50.2679C32.9333 50.1399 32.9026 50.0003 32.9032 49.859V48.9774C32.3432 48.6591 31.7241 48.4582 31.0839 48.3871C31.1613 48.9677 31.2484 49.771 31.3548 50.6516C32.2452 51.4451 34.4129 53.429 34.4129 54.1935C34.4129 55.1613 33.871 55.1613 33.871 55.1613L34.8387 56.129C34.6502 57.1364 34.3246 58.1132 33.871 59.0322C33.9677 59.0322 34.0645 59.0148 34.1613 59.01C34.8898 58.9744 35.5744 58.6509 36.0644 58.1106C36.5544 57.5703 36.8097 56.8575 36.7742 56.129Z" fill="#F0AF4C"/>
<path d="M25.1612 41.6129C24.6484 41.6113 24.157 41.4069 23.7943 41.0443C23.4317 40.6816 23.2273 40.1902 23.2257 39.6774C22.0476 39.6936 20.8858 39.9553 19.8145 40.4458C19.9284 40.9016 20.1487 41.324 20.4574 41.6782C20.7661 42.0325 21.1543 42.3086 21.5903 42.4838C21.7906 42.5546 21.9633 42.6872 22.0834 42.8625C22.2034 43.0379 22.2646 43.2469 22.258 43.4593V46.4516C22.258 46.4516 23.2257 48.387 25.1612 46.4516C25.1612 46.4516 22.258 41.6129 25.1612 41.6129Z" fill="#D79D44"/>
<path d="M38.4097 42.4838C38.8458 42.3085 39.2341 42.0322 39.5428 41.6778C39.8514 41.3234 40.0717 40.9008 40.1855 40.4448C39.1141 39.9547 37.9523 39.6933 36.7742 39.6774C36.7727 40.1902 36.5683 40.6816 36.2056 41.0443C35.843 41.4069 35.3516 41.6113 34.8387 41.6129C37.742 41.6129 34.8387 46.4516 34.8387 46.4516C36.7742 48.387 37.742 46.4516 37.742 46.4516V43.4593C37.7354 43.2469 37.7965 43.0379 37.9166 42.8625C38.0366 42.6872 38.2093 42.5546 38.4097 42.4838Z" fill="#D79D44"/>
<path d="M35.8065 38.7097C33.2399 38.7097 30.7784 37.6901 28.9635 35.8752C27.1486 34.0604 26.1291 31.5989 26.1291 29.0323V26.129H23.2258V39.6774C23.2274 40.1903 23.4318 40.6817 23.7944 41.0443C24.1571 41.407 24.6485 41.6114 25.1613 41.6129H26.4581C26.9666 41.6125 27.4702 41.7123 27.9401 41.9066C28.41 42.1008 28.837 42.3858 29.1968 42.7452L30 43.5484L30.8033 42.7452C31.163 42.3858 31.59 42.1008 32.06 41.9066C32.5299 41.7123 33.0335 41.6125 33.542 41.6129H34.8387C35.3516 41.6114 35.843 41.407 36.2056 41.0443C36.5683 40.6817 36.7727 40.1903 36.7742 39.6774V38.7097H35.8065Z" fill="#362312"/>
<path d="M30 26.129H23.2258V39.6774C23.2274 40.1903 23.4318 40.6817 23.7944 41.0443C24.1571 41.407 24.6485 41.6114 25.1613 41.6129H26.4581C26.9666 41.6125 27.4702 41.7123 27.9401 41.9066C28.41 42.1008 28.837 42.3858 29.1968 42.7452L30 43.5484L30.8033 42.7452C31.163 42.3858 31.59 42.1008 32.06 41.9066C32.5299 41.7123 33.0335 41.6125 33.542 41.6129H34.8387C35.3516 41.6114 35.843 41.407 36.2056 41.0443C36.5683 40.6817 36.7727 40.1903 36.7742 39.6774V26.129H30ZM36.2903 39.6774C36.2903 40.0624 36.1374 40.4316 35.8652 40.7039C35.5929 40.9761 35.2237 41.129 34.8387 41.129H33.542C32.3875 41.1313 31.2806 41.589 30.4616 42.4026L30 42.8642L29.5384 42.4026C28.7194 41.589 27.6125 41.1313 26.4581 41.129H25.1613C24.7763 41.129 24.4071 40.9761 24.1349 40.7039C23.8626 40.4316 23.7097 40.0624 23.7097 39.6774V26.6129H36.2903V39.6774Z" fill="#FFEF96"/>
<path d="M29.9419 20.2355C29.8559 18.898 29.3462 17.6226 28.4867 16.5943C27.6271 15.5659 26.4623 14.838 25.1613 14.5162L27.0968 12.5807L25.0393 13.3346C24.7836 13.4381 24.5655 13.6174 24.4144 13.8482C24.2632 14.0791 24.1862 14.3506 24.1935 14.6265C24.1827 14.8978 24.2556 15.1658 24.4025 15.3942C24.5493 15.6226 24.7629 15.8002 25.0142 15.9029C26.3816 16.3684 26.9235 18.0184 27.1132 19.6346C27.1833 20.0632 27.1623 20.5017 27.0519 20.9217C26.9414 21.3418 26.7438 21.7338 26.4719 22.0725C26.2 22.4112 25.86 22.6889 25.4738 22.8876C25.0876 23.0863 24.6639 23.2015 24.2303 23.2259H22.2581C22.2581 23.9958 22.5639 24.7343 23.1084 25.2787C23.6529 25.8232 24.3913 26.1291 25.1613 26.1291H30V22.2581C30 21.5129 29.9806 20.8452 29.9419 20.2355Z" fill="#F0AF4C"/>
<path d="M32.8868 19.6346C33.0803 18.0184 33.6184 16.3684 34.9858 15.9029C35.2371 15.8002 35.4507 15.6226 35.5975 15.3942C35.7444 15.1658 35.8173 14.8978 35.8065 14.6265C35.8138 14.3506 35.7368 14.0791 35.5856 13.8482C35.4345 13.6174 35.2164 13.4381 34.9606 13.3346L32.9032 12.5807L34.8387 14.5162C33.5376 14.838 32.3729 15.5659 31.5133 16.5943C30.6538 17.6226 30.1441 18.898 30.0581 20.2355C30.0194 20.8452 30 21.5129 30 22.2581V26.1291H34.8387C35.6087 26.1291 36.3471 25.8232 36.8916 25.2787C37.4361 24.7343 37.7419 23.9958 37.7419 23.2259H35.7697C35.3361 23.2015 34.9124 23.0863 34.5262 22.8876C34.14 22.6889 33.8 22.4112 33.5281 22.0725C33.2562 21.7338 33.0586 21.3418 32.9481 20.9217C32.8376 20.5017 32.8167 20.0632 32.8868 19.6346Z" fill="#F0AF4C"/>
<path d="M33.4838 7.69442C31.9555 7.62253 30.4398 7.38171 28.9645 6.97636C28.376 6.80828 27.8354 6.50406 27.3864 6.08829C26.9373 5.67253 26.5924 5.1569 26.3796 4.58313C26.2114 4.96883 26.126 5.38556 26.129 5.80636C26.1433 6.85719 26.4963 7.87535 27.1354 8.70958H27.0967V9.67732H32.9032V8.70958H32.8645C33.1493 8.42575 33.3618 8.07758 33.4838 7.69442Z" fill="#F0AF4C"/>
<path d="M15.3687 55.6702L8.83258 43.5319L9.57581 42.0454C9.69007 41.8158 9.70852 41.5502 9.6271 41.307L8.65935 38.4038C8.6192 38.2831 8.55565 38.1714 8.47235 38.0753C8.38904 37.9791 8.28761 37.9003 8.17384 37.8433C8.06008 37.7863 7.9362 37.7523 7.80929 37.7432C7.68238 37.7341 7.55493 37.7501 7.43419 37.7903C7.31346 37.8304 7.20182 37.894 7.10565 37.9773C7.00948 38.0606 6.93065 38.162 6.87368 38.2758C6.75862 38.5055 6.73954 38.7716 6.82065 39.0154L7.66065 41.5383L7.14387 42.5806H7.12258L15.12 56.8606C15.2933 56.7219 15.4129 56.5273 15.4582 56.3101C15.5036 56.0929 15.472 55.8667 15.3687 55.6702Z" fill="#F0AF4C"/>
</svg>
