<svg width="80" height="80" viewBox="0 0 80 80" fill="none" xmlns="http://www.w3.org/2000/svg">
<g clip-path="url(#clip0_33_43)">
<path d="M44.4714 10.9186C44.5556 10.8636 44.6362 10.8044 44.7143 10.7416L44.7644 10.6915C45.2948 10.2197 45.6262 9.56421 45.6915 8.85742C45.6964 8.8092 45.7037 8.76159 45.7141 8.7146C45.7141 8.67309 45.7141 8.62426 45.7141 8.57116V2.85705C45.7147 2.54761 45.6622 2.2406 45.5603 1.94885C45.1727 0.784911 44.0838 -1.40336e-06 42.857 -1.40336e-06H37.1429C35.9283 -0.00427387 34.8462 0.7666 34.4531 1.91589C34.3426 2.21741 34.2865 2.53601 34.2859 2.85705V8.57116C34.2828 8.61877 34.2828 8.66699 34.2859 8.7146C34.3353 9.46899 34.6747 10.1752 35.2331 10.686C35.2514 10.7013 35.2673 10.7184 35.2826 10.7343C35.3613 10.7989 35.4425 10.8594 35.5273 10.9155C35.5829 10.9528 35.636 10.9943 35.6927 11.0272C35.7855 11.0797 35.8807 11.1273 35.9784 11.17C36.037 11.1957 36.0913 11.2256 36.1499 11.2469C36.2591 11.2848 36.3702 11.3165 36.4831 11.3415C36.5344 11.3531 36.5844 11.3715 36.6357 11.3812C36.8029 11.4117 36.9726 11.4276 37.1429 11.4288H42.857C43.0267 11.4276 43.1958 11.4123 43.363 11.3831C43.4143 11.3727 43.4631 11.3544 43.5144 11.3428C43.6273 11.3177 43.739 11.2866 43.8488 11.2488C43.9068 11.2274 43.9611 11.1969 44.0185 11.1731C44.1156 11.1285 44.2126 11.0858 44.3042 11.0303C44.3628 10.9998 44.4159 10.957 44.4714 10.9186Z" fill="#1C7B37"/>
<path d="M16.0858 9.24438C16.5826 8.9801 17.0856 8.71887 17.594 8.46313C19.248 7.57141 20.9967 6.86889 22.807 6.36841C25.6805 5.79834 28.6536 5.99304 31.4288 6.93298V2.85705C31.4288 2.72888 31.4288 2.60132 31.4416 2.47314C29.0967 1.84204 26.662 1.61743 24.2413 1.80847C21.626 2.03979 19.884 3.38012 17.8699 4.92981C16.5125 6.04309 15.0433 7.01355 13.4869 7.82592C12.699 8.20923 11.8835 8.53515 11.0486 8.80127C11.1157 8.98254 11.1719 9.16809 11.217 9.35547C11.2469 9.46289 11.2915 9.56421 11.3141 9.67407C11.3885 10.0159 11.427 10.3644 11.4288 10.7141C11.4282 10.9051 11.4178 11.0962 11.3971 11.286C13.0304 10.78 14.6027 10.0952 16.0858 9.24438Z" fill="#1C7B37"/>
<path d="M68.7817 9.35852C68.8275 9.16992 68.8843 8.98376 68.9514 8.80127C68.1152 8.53454 67.2992 8.208 66.51 7.82409C64.9548 7.01233 63.4869 6.04248 62.1301 4.92981C60.116 3.37829 58.374 2.03979 55.7587 1.80847C53.338 1.61804 50.9033 1.84265 48.5583 2.47314C48.5712 2.60132 48.5712 2.72888 48.5712 2.85705V6.93298C50.3729 6.35315 52.251 6.04675 54.1431 6.02417C55.1691 6.01928 56.192 6.13403 57.1912 6.36718C59.0033 6.86706 60.7526 7.56958 62.4072 8.4613C62.9242 8.71887 63.4216 8.9801 63.9185 9.24438C65.4004 10.0952 66.9708 10.7794 68.6029 11.286C68.5821 11.0962 68.5718 10.9051 68.5712 10.7141C68.573 10.3644 68.6114 10.0159 68.6859 9.67407C68.714 9.57153 68.7512 9.46594 68.7817 9.35852Z" fill="#1C7B37"/>
<path d="M42.8571 14.2859H37.1429C36.8329 14.2828 36.524 14.2548 36.2189 14.2017C36.1359 14.187 36.0541 14.1711 35.9729 14.154C35.8917 14.137 35.7983 14.126 35.7141 14.104V57.1429H44.2859V14.104C44.2017 14.126 44.1132 14.1357 44.0271 14.154C43.9416 14.173 43.8641 14.187 43.7817 14.2017C43.476 14.2548 43.1671 14.2828 42.8571 14.2859Z" fill="#1C7B37"/>
<path d="M11.4288 75.7141V80H68.5712V75.7141C68.5712 73.3472 66.6528 71.4288 64.2859 71.4288H15.7141C13.3472 71.4288 11.4288 73.3472 11.4288 75.7141ZM55.7141 74.2859H57.1429C57.9321 74.2859 58.5712 74.9255 58.5712 75.7141C58.5712 76.5033 57.9321 77.1429 57.1429 77.1429H55.7141C54.9255 77.1429 54.2859 76.5033 54.2859 75.7141C54.2859 74.9255 54.9255 74.2859 55.7141 74.2859ZM30 74.2859H50C50.7892 74.2859 51.4288 74.9255 51.4288 75.7141C51.4288 76.5033 50.7892 77.1429 50 77.1429H30C29.2108 77.1429 28.5712 76.5033 28.5712 75.7141C28.5712 74.9255 29.2108 74.2859 30 74.2859ZM22.8571 74.2859H24.2859C25.0745 74.2859 25.7141 74.9255 25.7141 75.7141C25.7141 76.5033 25.0745 77.1429 24.2859 77.1429H22.8571C22.0679 77.1429 21.4288 76.5033 21.4288 75.7141C21.4288 74.9255 22.0679 74.2859 22.8571 74.2859Z" fill="#1C7B37"/>
<path d="M24.2859 60C21.9189 60 20 61.9189 20 64.2859V68.5711H60V64.2859C60 61.9189 58.081 60 55.7141 60H24.2859ZM27.1429 65.7141H25.7141C24.9255 65.7141 24.2859 65.0744 24.2859 64.2859C24.2859 63.4967 24.9255 62.857 25.7141 62.857H27.1429C27.9321 62.857 28.5712 63.4967 28.5712 64.2859C28.5712 65.0744 27.9321 65.7141 27.1429 65.7141ZM52.857 62.857H54.2859C55.0745 62.857 55.7141 63.4967 55.7141 64.2859C55.7141 65.0744 55.0745 65.7141 54.2859 65.7141H52.857C52.0679 65.7141 51.4288 65.0744 51.4288 64.2859C51.4288 63.4967 52.0679 62.857 52.857 62.857ZM47.1429 62.857C47.9321 62.857 48.5712 63.4967 48.5712 64.2859C48.5712 65.0744 47.9321 65.7141 47.1429 65.7141H32.8571C32.0679 65.7141 31.4288 65.0744 31.4288 64.2859C31.4288 63.4967 32.0679 62.857 32.8571 62.857H47.1429Z" fill="#1C7B37"/>
<path d="M7.14294 44.2859C11.0858 44.281 14.281 41.0858 14.2859 37.1429V35.7141H12.6385L8.55163 11.1945C8.55163 11.1713 8.53454 11.1542 8.53027 11.1328C8.75244 10.0415 8.10119 8.96118 7.03186 8.64868C5.96252 8.33557 4.83215 8.89465 4.43115 9.93347C4.03015 10.9729 4.49219 12.146 5.49438 12.6331L1.64734 35.7141H0V37.1429C0.00488281 41.0858 3.20007 44.281 7.14294 44.2859ZM7.14294 20.1184L9.74304 35.7141H4.54285L7.14294 20.1184Z" fill="#1C7B37"/>
<path d="M80 35.7141H78.3527L74.5056 12.6331C75.5078 12.146 75.9698 10.9729 75.5688 9.93347C75.1678 8.89465 74.0375 8.33557 72.9681 8.64868C71.8988 8.96118 71.2476 10.0415 71.4697 11.1328C71.4697 11.1542 71.4514 11.1713 71.4484 11.1945L67.3614 35.7141H65.7141V37.1429C65.7141 41.0876 68.9124 44.2859 72.8571 44.2859C76.8018 44.2859 80 41.0876 80 37.1429V35.7141ZM70.257 35.7141L72.8571 20.1184L75.4572 35.7141H70.257Z" fill="#1C7B37"/>
</g>
<defs>
<clipPath id="clip0_33_43">
<rect width="80" height="80" fill="white"/>
</clipPath>
</defs>
</svg>
