<svg width="80" height="80" viewBox="0 0 80 80" fill="none" xmlns="http://www.w3.org/2000/svg">
<g clip-path="url(#clip0_33_6)">
<path d="M67.1431 2.85715C67.1431 2.09939 66.8421 1.37266 66.3063 0.83684C65.7705 0.30102 65.0437 0 64.286 0H20.6344C21.1486 0.864783 21.4228 1.85107 21.4287 2.85715V38.8858C23.8059 37.3565 26.4737 36.3351 29.2644 35.8858C27.8682 32.8476 27.1446 29.5437 27.143 26.2001V12.5C27.1447 11.5671 27.4845 10.6665 28.0994 9.96488C28.7143 9.2633 29.5627 8.80835 30.4873 8.68431C34.6923 8.21472 38.8376 7.31232 42.8573 5.99145C43.7687 5.62573 44.786 5.62573 45.6973 5.99145C49.7229 7.31409 53.8746 8.21652 58.0859 8.68431C59.0103 8.80867 59.8583 9.26376 60.4729 9.96531C61.0875 10.6669 61.4271 11.5673 61.4288 12.5V26.2001C61.4284 31.1674 59.8363 36.0039 56.8859 40.0001H67.1431V2.85715Z" fill="#1C7B37"/>
<path d="M58.5716 26.2001V12.5C58.5721 12.2602 58.4854 12.0283 58.3278 11.8475C58.1701 11.6667 57.9522 11.5494 57.7145 11.5172C53.2626 11.0306 48.8763 10.065 44.6316 8.63715C44.4064 8.54506 44.154 8.54506 43.9287 8.63715C39.6876 10.0637 35.3052 11.0293 30.8573 11.5172C30.6196 11.5494 30.4017 11.6667 30.244 11.8475C30.0863 12.0283 29.9997 12.2602 30.0001 12.5V26.2001C30.0008 29.5237 30.8166 32.7964 32.3758 35.7315C33.5778 35.7544 34.7206 35.8177 35.8044 35.9215C33.8806 33.0446 32.8549 29.661 32.8573 26.2001V16.5715C32.8563 15.8925 33.0971 15.2353 33.5367 14.7178C33.9762 14.2002 34.5857 13.8561 35.2559 13.7472C38.0174 13.3156 40.7447 12.6883 43.4173 11.87C43.9897 11.6752 44.6108 11.6777 45.1816 11.8772C47.8481 12.6931 50.5693 13.3185 53.3245 13.7486C53.9929 13.8594 54.6001 14.204 55.0379 14.7211C55.4757 15.2382 55.7155 15.894 55.7145 16.5715V26.2001C55.7164 30.4283 54.1868 34.5141 51.4088 37.7015L54.0173 39.0144C56.9589 35.391 58.5667 30.8672 58.5716 26.2001Z" fill="#1C7B37"/>
<path d="M18.5715 40.8644V2.85715C18.5715 2.09939 18.2705 1.37266 17.7346 0.83684C17.1988 0.30102 16.4721 0 15.7143 0C14.9566 0 14.2298 0.30102 13.694 0.83684C13.1582 1.37266 12.8572 2.09939 12.8572 2.85715V41.4287H16.4529C17.1963 41.4289 17.9267 41.2343 18.5715 40.8644Z" fill="#1C7B37"/>
<path d="M44.273 14.5872C41.4705 15.4494 38.6105 16.1125 35.7144 16.5715V26.2044C35.705 29.526 36.8293 32.7513 38.9016 35.3473C40.0279 34.723 41.2878 34.3784 42.5751 34.3426C43.8624 34.3068 45.1394 34.5808 46.2987 35.1415L48.7473 36.373C51.3872 33.6449 52.8613 29.9963 52.8573 26.2001V16.5715C49.9537 16.1081 47.0855 15.4451 44.273 14.5872ZM48.2859 23.7144L44.0002 29.4287C43.8777 29.593 43.7213 29.7292 43.5416 29.8278C43.362 29.9264 43.1631 29.9851 42.9587 30.0001H42.8573C42.4784 30 42.1151 29.8495 41.8473 29.5815L40.4187 28.1529C40.1585 27.8835 40.0145 27.5227 40.0177 27.1481C40.021 26.7735 40.1712 26.4152 40.4361 26.1503C40.701 25.8855 41.0593 25.7352 41.4339 25.732C41.8084 25.7287 42.1693 25.8727 42.4387 26.1329L42.703 26.3972L46.0002 22.0001C46.1127 21.85 46.2537 21.7235 46.4152 21.628C46.5766 21.5324 46.7553 21.4695 46.941 21.443C47.1267 21.4165 47.3158 21.4268 47.4976 21.4733C47.6793 21.5199 47.8501 21.6018 48.0002 21.7144C48.1502 21.8269 48.2767 21.9679 48.3723 22.1294C48.4679 22.2908 48.5307 22.4695 48.5572 22.6552C48.5838 22.8409 48.5735 23.03 48.5269 23.2118C48.4803 23.3935 48.3984 23.5643 48.2859 23.7144Z" fill="#1C7B37"/>
<path d="M7.14282 59.8873C9.6814 59.7573 14.5457 59.8245 17.84 61.7673L18.7943 60.1859C19.2688 59.3981 19.9517 58.7567 20.7678 58.3326C21.5838 57.9085 22.5012 57.7182 23.4186 57.7826C24.336 57.847 25.2177 58.1638 25.9664 58.6978C26.7152 59.2318 27.3018 59.9623 27.6615 60.8087C28.0014 60.6318 28.3604 60.4943 28.7315 60.3987C29.4629 60.2189 30.2257 60.2072 30.9624 60.3645C31.699 60.5218 32.3905 60.844 32.9847 61.3069C33.5789 61.7698 34.0605 62.3615 34.3933 63.0373C34.726 63.7131 34.9012 64.4555 34.9058 65.2088C35.5636 65.1539 36.2257 65.2309 36.8533 65.4354C37.481 65.6398 38.0615 65.9676 38.5607 66.3994C39.06 66.8312 39.468 67.3583 39.7608 67.9499C40.0536 68.5415 40.2253 69.1856 40.2658 69.8445C41.0325 69.8191 41.7919 69.9999 42.4649 70.3681C43.1378 70.7363 43.6996 71.2784 44.0916 71.9378C44.4836 72.5971 44.6914 73.3496 44.6934 74.1167C44.6954 74.8838 44.4915 75.6374 44.1029 76.2988L48.5015 79.5188C48.8069 79.7383 49.1865 79.8286 49.5579 79.77C49.9294 79.7115 50.2628 79.5088 50.4858 79.2059C50.7087 78.9038 50.8036 78.5261 50.7502 78.1545C50.6967 77.7829 50.4991 77.4473 50.2001 77.2202C50.1715 77.1759 47.7415 75.4459 47.7415 75.4459C47.5892 75.3362 47.46 75.1975 47.3612 75.0378C47.2625 74.8781 47.1962 74.7006 47.166 74.5152C47.1359 74.3299 47.1426 74.1405 47.1857 73.9577C47.2288 73.775 47.3075 73.6025 47.4172 73.4502C47.527 73.2979 47.6657 73.1687 47.8253 73.0699C47.985 72.9712 48.1626 72.9049 48.3479 72.8747C48.5332 72.8446 48.7227 72.8513 48.9054 72.8944C49.0882 72.9375 49.2606 73.0162 49.413 73.1259C49.413 73.1259 52.283 75.2102 52.4301 75.3231C52.8949 75.6429 53.4644 75.7728 54.022 75.6862C54.5795 75.5996 55.0828 75.3031 55.4287 74.8574C55.7607 74.4028 55.9005 73.8358 55.8179 73.279C55.7353 72.7222 55.4369 72.2202 54.9873 71.8816L50.0944 68.2959C49.7886 68.072 49.5843 67.7358 49.5265 67.3612C49.4686 66.9867 49.5619 66.6045 49.7858 66.2988C50.0097 65.993 50.3459 65.7887 50.7205 65.7309C51.095 65.673 51.4772 65.7663 51.783 65.9902L57.8087 70.4016C58.2684 70.7305 58.8384 70.8666 59.397 70.7809C59.9557 70.6952 60.4587 70.3945 60.7987 69.9431C61.113 69.4766 61.2401 68.9088 61.1546 68.3528C61.0691 67.7969 60.7773 67.2935 60.3373 66.9431L54.8673 62.943C54.7157 62.8324 54.5874 62.6929 54.4897 62.5326C54.392 62.3724 54.3268 62.1944 54.2979 62.009C54.269 61.8235 54.2769 61.6342 54.3211 61.4518C54.3654 61.2694 54.4451 61.0975 54.5558 60.9459C54.6665 60.7943 54.806 60.666 54.9662 60.5683C55.1265 60.4706 55.3044 60.4055 55.4899 60.3766C55.6754 60.3476 55.8647 60.3555 56.0471 60.3998C56.2295 60.444 56.4014 60.5238 56.553 60.6345L60.753 63.7073C61.1112 63.9901 61.5466 64.1579 62.0019 64.1887C62.4573 64.2196 62.9113 64.112 63.3044 63.8802C63.5906 63.6862 63.8267 63.4271 63.9933 63.124C64.1598 62.821 64.252 62.4828 64.2623 62.1372C64.2727 61.7916 64.2008 61.4485 64.0526 61.1361C63.9045 60.8237 63.6843 60.5509 63.4101 60.3402L42.9815 46.1173L35.7543 52.8316C34.8095 53.736 33.5519 54.2407 32.2439 54.2403C30.9359 54.2399 29.6786 53.7345 28.7344 52.8294C27.7901 51.9244 27.2317 50.6897 27.1758 49.3829C27.1199 48.0761 27.5708 46.7982 28.4343 45.8158L35.1643 38.7287C34 38.6272 32.7558 38.5715 31.4286 38.5715C27.5613 38.7946 23.8683 40.2562 20.8957 42.7401C19.6288 43.7369 18.0648 44.281 16.4529 44.2858H7.14282V59.8873Z" fill="#1C7B37"/>
<path d="M36.983 79.7931C37.3068 79.9894 37.6952 80.049 38.063 79.959C38.4308 79.869 38.7478 79.6367 38.9444 79.3131L41.6358 74.8688C41.7332 74.7084 41.7981 74.5304 41.8267 74.3449C41.8553 74.1595 41.847 73.9702 41.8025 73.7879C41.7579 73.6057 41.6778 73.4339 41.5669 73.2826C41.4559 73.1313 41.3163 73.0033 41.1558 72.9059C40.8308 72.7146 40.4439 72.6576 40.0776 72.7473C39.7112 72.837 39.3943 73.0661 39.1944 73.3859L36.503 77.8288C36.4053 77.9893 36.3403 78.1674 36.3116 78.353C36.2829 78.5386 36.291 78.728 36.3356 78.9105C36.3802 79.0929 36.4603 79.2648 36.5714 79.4162C36.6825 79.5677 36.8223 79.6958 36.983 79.7931Z" fill="#1C7B37"/>
<path d="M24.1887 60.9445C23.7016 60.6536 23.1198 60.5655 22.5685 60.699C22.0171 60.8326 21.5401 61.1772 21.2401 61.6587L18.553 66.1145C18.2635 66.5979 18.1761 67.1758 18.3096 67.7232C18.4431 68.2706 18.7868 68.7433 19.2663 69.0392C19.7458 69.335 20.3226 69.4301 20.8717 69.3038C21.4207 69.1775 21.898 68.8401 22.2001 68.3645C22.2173 68.3288 24.9444 63.823 24.9444 63.823C25.2119 63.3379 25.2826 62.7685 25.142 62.2327C25.0013 61.6969 24.66 61.2356 24.1887 60.9445Z" fill="#1C7B37"/>
<path d="M25.3801 72.7531C25.8661 73.0436 26.4468 73.1315 26.997 72.9979C27.5473 72.8643 28.0229 72.5198 28.3216 72.0388L31.7502 66.373C32.0459 65.8877 32.1367 65.3048 32.0026 64.7525C31.8685 64.2002 31.5205 63.7238 31.0352 63.428C30.5498 63.1323 29.9669 63.0415 29.4146 63.1756C28.8623 63.3097 28.3859 63.6577 28.0901 64.143L24.6616 69.8188C24.3729 70.3045 24.2865 70.8841 24.4209 71.4328C24.5553 71.9816 24.8997 72.4557 25.3801 72.7531Z" fill="#1C7B37"/>
<path d="M31.4858 76.4588C31.9722 76.7486 32.5529 76.8362 33.1031 76.7026C33.6534 76.5691 34.1293 76.2251 34.4287 75.7445L37.1187 71.3002C37.2771 71.0597 37.3854 70.7898 37.4372 70.5065C37.4889 70.2232 37.483 69.9324 37.4199 69.6515C37.3567 69.3705 37.2376 69.1052 37.0696 68.8713C36.9016 68.6374 36.6881 68.4398 36.4421 68.2903C36.196 68.1407 35.9223 68.0423 35.6373 68.0009C35.3523 67.9595 35.0619 67.9759 34.7835 68.0493C34.505 68.1226 34.2441 68.2513 34.0165 68.4277C33.7889 68.6041 33.5992 68.8246 33.4587 69.0759L30.7658 73.5145C30.4764 74.0018 30.3897 74.5832 30.5244 75.1337C30.659 75.6843 31.0042 76.16 31.4858 76.4588Z" fill="#1C7B37"/>
<path d="M2.85715 41.4287H1.42858C0.639595 41.4287 0 42.0683 0 42.8573V61.4287C0 62.2177 0.639595 62.8573 1.42858 62.8573H2.85715C3.64613 62.8573 4.28573 62.2177 4.28573 61.4287V42.8573C4.28573 42.0683 3.64613 41.4287 2.85715 41.4287Z" fill="#1C7B37"/>
<path d="M72.8574 42.8573H56.3145C55.6441 42.8601 54.9828 42.7023 54.3859 42.3973L45.0016 37.683C44.0388 37.2302 42.9597 37.0853 41.9116 37.2681C40.8634 37.4509 39.8971 37.9525 39.1444 38.7044L30.5444 47.7616C30.1703 48.1947 29.9783 48.7558 30.0086 49.3274C30.039 49.8989 30.2893 50.4365 30.7072 50.8276C31.125 51.2187 31.678 51.433 32.2503 51.4254C32.8226 51.4179 33.3698 51.1892 33.7773 50.7873L41.0487 44.0301C41.5279 43.5849 42.1455 43.3176 42.7981 43.2729C43.4507 43.2281 44.0989 43.4087 44.6344 43.7844L65.0816 58.0188C65.4698 58.3119 65.8134 58.6598 66.1016 59.0516C68.3409 58.748 70.5976 58.591 72.8574 58.5816V42.8573Z" fill="#1C7B37"/>
<path d="M78.5716 40.0001H77.1431C76.3541 40.0001 75.7145 40.6397 75.7145 41.4287V60.0002C75.7145 60.7892 76.3541 61.4288 77.1431 61.4288H78.5716C79.3606 61.4288 80.0002 60.7892 80.0002 60.0002V41.4287C80.0002 40.6397 79.3606 40.0001 78.5716 40.0001Z" fill="#1C7B37"/>
</g>
<defs>
<clipPath id="clip0_33_6">
<rect width="80" height="80" fill="white"/>
</clipPath>
</defs>
</svg>
