<svg width="80" height="80" viewBox="0 0 80 80" fill="none" xmlns="http://www.w3.org/2000/svg">
<g clip-path="url(#clip0_33_3)">
<path d="M18.9474 26.2632C11.9705 26.2632 6.31579 20.6084 6.31579 13.6316C6.31579 6.65474 11.9705 1 18.9474 1C25.9242 1 31.5789 6.65474 31.5789 13.6316C31.5789 20.6084 25.9242 26.2632 18.9474 26.2632ZM29.32 63.7768C26.8063 61.1326 25.2632 57.5579 25.2632 53.6316C25.2632 46.5642 30.2653 40.6484 36.9137 39.2253C34.4084 31.6968 27.3179 26.2632 18.9474 26.2632C8.48211 26.2632 0 34.7453 0 45.2105V78.8947H23.1579V76.7895C23.1579 71.5537 25.56 66.8674 29.32 63.7768ZM61.0526 26.2632C52.6821 26.2632 45.5937 31.6968 43.0863 39.2253C49.7347 40.6484 54.7368 46.5642 54.7368 53.6316C54.7368 57.5579 53.1937 61.1326 50.68 63.7768C54.44 66.8674 56.8421 71.5537 56.8421 76.7895V78.8947H80V45.2105C80 34.7453 71.5179 26.2632 61.0526 26.2632ZM73.6842 13.6316C73.6842 6.65474 68.0295 1 61.0526 1C54.0758 1 48.4211 6.65474 48.4211 13.6316C48.4211 20.6084 54.0758 26.2632 61.0526 26.2632C68.0295 26.2632 73.6842 20.6084 73.6842 13.6316ZM40 64.1579C33.0232 64.1579 27.3684 69.8126 27.3684 76.7895V78.8947H52.6316V76.7895C52.6316 69.8126 46.9768 64.1579 40 64.1579ZM50.5263 53.6316C50.5263 47.819 45.8126 43.1053 40 43.1053C34.1874 43.1053 29.4737 47.819 29.4737 53.6316C29.4737 59.4442 34.1874 64.1579 40 64.1579C45.8126 64.1579 50.5263 59.4442 50.5263 53.6316Z" fill="#1C7B37"/>
</g>
<defs>
<clipPath id="clip0_33_3">
<rect width="80" height="80" fill="white"/>
</clipPath>
</defs>
</svg>
