<svg width="80" height="80" viewBox="0 0 80 80" fill="none" xmlns="http://www.w3.org/2000/svg">
<path d="M40 77.3333C45.1613 77.3365 50.2665 76.2629 54.9893 74.1813C54.665 72.8766 54.2484 71.5965 53.7427 70.3507C49.4278 72.3163 44.7415 73.3334 40 73.3334C35.2585 73.3334 30.5722 72.3163 26.2573 70.3507C25.7517 71.5965 25.3351 72.8766 25.0107 74.1813C29.7336 76.2629 34.8387 77.3365 40 77.3333Z" fill="#1C7B37"/>
<path d="M3.22534 33.612C8.99053 33.4804 14.7307 34.4115 20.1587 36.3587C22.0413 36.968 23.836 37.58 25.492 38.1747C26.1878 38.4251 26.7996 38.8653 27.2581 39.4455C27.7167 40.0256 28.0037 40.7225 28.0867 41.4573C28.2711 42.9873 28.7526 44.4666 29.504 45.812C29.8699 46.456 30.0488 47.1893 30.0206 47.9295C29.9923 48.6696 29.758 49.3871 29.344 50.0013C28.3453 51.476 27.2507 53.028 26.0893 54.6147C22.8468 59.3742 18.7549 63.4955 14.0187 66.772C16.5586 69.239 19.4346 71.3344 22.5613 72.996C24.209 67.4732 26.8669 62.304 30.4 57.7507C31.6 56.0893 32.7427 54.5693 33.7813 53.232C34.2349 52.6492 34.8421 52.2045 35.5346 51.9479C36.2272 51.6914 36.9775 51.6333 37.7013 51.78C39.2176 52.0721 40.7757 52.0721 42.292 51.78C43.0158 51.6337 43.766 51.6921 44.4585 51.9486C45.1509 52.2051 45.7582 52.6495 46.212 53.232C47.252 54.5653 48.3907 56.0893 49.596 57.7507C53.1307 62.3038 55.7904 67.473 57.44 72.996C60.567 71.3349 63.4431 69.2394 65.9827 66.772C61.2451 63.4941 57.1519 59.3716 53.908 54.6107C52.7507 53.028 51.656 51.476 50.6573 50C50.2433 49.3858 50.009 48.6682 49.981 47.928C49.953 47.1877 50.1323 46.4544 50.4987 45.8107C51.2495 44.4651 51.7305 42.9859 51.9147 41.456C51.9979 40.7214 52.285 40.0248 52.7436 39.4449C53.2021 38.865 53.8137 38.425 54.5093 38.1747C56.164 37.58 57.9587 36.968 59.8427 36.3587C65.2705 34.4109 71.0108 33.4798 76.776 33.612C76.173 30.1194 75.0716 26.7315 73.5053 23.552C68.9209 27.0472 63.7322 29.6686 58.1987 31.2853C56.1453 31.952 54.3627 32.496 52.8067 32.9507C52.4458 33.0579 52.0712 33.1122 51.6947 33.112C51.1431 33.1105 50.5977 32.995 50.0929 32.7727C49.5881 32.5503 49.1348 32.226 48.7613 31.82C47.7116 30.6891 46.4523 29.7726 45.0533 29.1213C44.3808 28.8128 43.8078 28.3225 43.3991 27.7058C42.9903 27.089 42.7621 26.3703 42.74 25.6307C42.6947 24.012 42.6667 22.1467 42.6667 20C42.4969 14.2362 43.3873 8.4902 45.2933 3.04801C41.7828 2.53962 38.2173 2.53962 34.7067 3.04801C36.6127 8.4902 37.5031 14.2362 37.3333 20C37.3333 22.1467 37.3053 24.012 37.2587 25.628C37.2365 26.3671 37.0084 27.0853 36.5998 27.7016C36.1913 28.3179 35.6188 28.8078 34.9467 29.116C33.5473 29.7678 32.2876 30.6847 31.2373 31.816C30.8639 32.222 30.4105 32.5463 29.9057 32.7687C29.4009 32.991 28.8556 33.1065 28.304 33.108C27.9275 33.1082 27.5529 33.0539 27.192 32.9467C25.636 32.492 23.8587 31.944 21.8027 31.2813C16.2682 29.6651 11.0785 27.0436 6.49334 23.548C4.92768 26.7289 3.8271 30.1182 3.22534 33.612ZM49.7333 35.436L51.0013 35.024C51.1701 34.96 51.3502 34.931 51.5305 34.9387C51.7109 34.9464 51.8878 34.9906 52.0505 35.0686C52.2133 35.1467 52.3585 35.257 52.4774 35.3929C52.5962 35.5287 52.6862 35.6873 52.742 35.859C52.7978 36.0307 52.8181 36.2119 52.8017 36.3917C52.7853 36.5714 52.7326 36.746 52.6468 36.9048C52.561 37.0636 52.4438 37.2033 52.3024 37.3155C52.1609 37.4277 51.9982 37.5099 51.824 37.5573L50.556 37.9693C50.3872 38.0333 50.2072 38.0623 50.0268 38.0547C49.8465 38.047 49.6696 38.0028 49.5068 37.9247C49.3441 37.8466 49.1989 37.7363 49.08 37.6005C48.9611 37.4646 48.8711 37.306 48.8153 37.1344C48.7596 36.9627 48.7393 36.7814 48.7556 36.6017C48.772 36.4219 48.8247 36.2473 48.9105 36.0885C48.9964 35.9297 49.1136 35.79 49.255 35.6779C49.3964 35.5657 49.5592 35.4834 49.7333 35.436ZM48.1333 48.924C48.3413 49.2104 48.4269 49.5677 48.3714 49.9173C48.3159 50.2669 48.1238 50.5801 47.8373 50.788C47.5509 50.9959 47.1936 51.0816 46.844 51.0261C46.4945 50.9705 46.1813 50.7784 45.9733 50.492L45.1907 49.4133C45.0877 49.2716 45.0137 49.111 44.9728 48.9406C44.9319 48.7703 44.925 48.5935 44.9524 48.4205C44.9799 48.2475 45.0411 48.0816 45.1326 47.9322C45.2242 47.7828 45.3443 47.653 45.486 47.55C45.6277 47.447 45.7884 47.373 45.9587 47.3321C46.1291 47.2913 46.3058 47.2843 46.4788 47.3118C46.6519 47.3392 46.8178 47.4004 46.9672 47.492C47.1165 47.5835 47.2464 47.7036 47.3493 47.8453L48.1333 48.924ZM38.6667 28C38.6667 27.6464 38.8071 27.3072 39.0572 27.0572C39.3072 26.8071 39.6464 26.6667 40 26.6667C40.3536 26.6667 40.6928 26.8071 40.9428 27.0572C41.1929 27.3072 41.3333 27.6464 41.3333 28V29.3333C41.3333 29.687 41.1929 30.0261 40.9428 30.2762C40.6928 30.5262 40.3536 30.6667 40 30.6667C39.6464 30.6667 39.3072 30.5262 39.0572 30.2762C38.8071 30.0261 38.6667 29.687 38.6667 29.3333V28ZM40 33.3333C41.3185 33.3333 42.6075 33.7243 43.7038 34.4569C44.8001 35.1894 45.6546 36.2306 46.1592 37.4488C46.6638 38.667 46.7958 40.0074 46.5386 41.3006C46.2813 42.5938 45.6464 43.7817 44.7141 44.7141C43.7817 45.6464 42.5938 46.2813 41.3006 46.5386C40.0074 46.7958 38.667 46.6638 37.4488 46.1592C36.2306 45.6546 35.1894 44.8001 34.4569 43.7038C33.7243 42.6075 33.3333 41.3186 33.3333 40C33.3355 38.2325 34.0385 36.5381 35.2883 35.2883C36.5381 34.0385 38.2325 33.3355 40 33.3333ZM31.8667 48.924L32.6507 47.8453C32.7536 47.7036 32.8835 47.5835 33.0329 47.492C33.1822 47.4004 33.3481 47.3392 33.5212 47.3118C33.6942 47.2843 33.8709 47.2913 34.0413 47.3321C34.2116 47.373 34.3723 47.447 34.514 47.55C34.6557 47.653 34.7758 47.7828 34.8674 47.9322C34.9589 48.0816 35.0202 48.2475 35.0476 48.4205C35.075 48.5935 35.0681 48.7703 35.0272 48.9406C34.9863 49.111 34.9123 49.2716 34.8093 49.4133L34.0267 50.492C33.9237 50.6338 33.7938 50.754 33.6444 50.8456C33.495 50.9373 33.3291 50.9986 33.156 51.0261C32.8064 51.0816 32.4491 50.9959 32.1627 50.788C31.8762 50.5801 31.6841 50.2669 31.6286 49.9173C31.5731 49.5677 31.6587 49.2104 31.8667 48.924ZM27.3187 35.88C27.428 35.5437 27.6663 35.2646 27.9814 35.1041C28.2965 34.9436 28.6624 34.9148 28.9987 35.024L30.2667 35.436C30.4409 35.4834 30.6036 35.5657 30.745 35.6779C30.8865 35.79 31.0036 35.9297 31.0895 36.0885C31.1753 36.2473 31.228 36.4219 31.2444 36.6017C31.2607 36.7814 31.2404 36.9627 31.1847 37.1344C31.1289 37.306 31.0389 37.4646 30.92 37.6005C30.8012 37.7363 30.656 37.8466 30.4932 37.9247C30.3304 38.0028 30.1535 38.047 29.9732 38.0547C29.7928 38.0623 29.6128 38.0333 29.444 37.9693L28.176 37.5573C27.8401 37.4483 27.5612 37.2104 27.4004 36.896C27.2397 36.5815 27.2103 36.2161 27.3187 35.88Z" fill="#1C7B37"/>
<path d="M72.2107 21.16C69.6022 16.7105 66.1024 12.8479 61.931 9.81443C57.7595 6.781 53.0063 4.64215 47.9694 3.53201C47.4615 4.77758 47.0444 6.05826 46.7214 7.36401C51.3635 8.32273 55.7476 10.2607 59.5812 13.0485C63.4147 15.8364 66.6094 19.41 68.952 23.5307C70.0948 22.8212 71.1839 22.0289 72.2107 21.16Z" fill="#1C7B37"/>
<path d="M2.8507 36.308C2.7307 37.5227 2.6667 38.7533 2.6667 40C2.66054 49.1528 6.03131 57.9861 12.1334 64.808C13.271 64.1051 14.3556 63.3199 15.3787 62.4587C9.76158 56.3295 6.65215 48.3137 6.6667 40C6.67501 38.765 6.75336 37.5315 6.90136 36.3053C5.55288 36.2074 4.19904 36.2083 2.8507 36.308Z" fill="#1C7B37"/>
<path d="M40 44C42.2091 44 44 42.2091 44 40C44 37.7909 42.2091 36 40 36C37.7909 36 36 37.7909 36 40C36 42.2091 37.7909 44 40 44Z" fill="#1C7B37"/>
<path d="M77.3333 40C77.3333 38.7533 77.2693 37.5227 77.1493 36.308C75.8009 36.2091 74.4471 36.2091 73.0987 36.308C73.2466 37.5332 73.3249 38.7659 73.3333 40C73.3479 48.3137 70.2385 56.3295 64.6213 62.4587C65.6444 63.3199 66.7291 64.1051 67.8667 64.808C73.9687 57.9861 77.3395 49.1528 77.3333 40Z" fill="#1C7B37"/>
<path d="M11.048 23.5307C13.3906 19.41 16.5854 15.8364 20.4189 13.0485C24.2525 10.2607 28.6366 8.32273 33.2787 7.36401C32.9557 6.05826 32.5386 4.77758 32.0307 3.53201C26.9938 4.64215 22.2406 6.781 18.0691 9.81443C13.8976 12.8479 10.3979 16.7105 7.78937 21.16C8.81649 22.0284 9.9056 22.8208 11.048 23.5307Z" fill="#1C7B37"/>
</svg>
