<svg width="80" height="80" viewBox="0 0 80 80" fill="none" xmlns="http://www.w3.org/2000/svg">
<g clip-path="url(#clip0_33_53)">
<path d="M20.0667 77.6544L30.4547 91.9326H35.1946C29.4241 85.3093 25.6365 77.1941 24.266 68.5172L20.0667 77.6544Z" fill="#1C7B37"/>
<path d="M34.2 52.2267V55.7159L39.5 59.6909L44.8 55.7159V52.2267C41.3552 53.3457 37.6447 53.3457 34.2 52.2267Z" fill="#1C7B37"/>
<path d="M42.1376 62.1289L46.5667 66.853L50.9957 62.1289L46.5667 58.8076L42.1376 62.1289Z" fill="#1C7B37"/>
<path d="M56.3893 63.6659L62.1451 76.1774C62.3925 76.7205 62.4978 77.3174 62.4511 77.9123C62.4045 78.5072 62.2074 79.0804 61.8784 79.5783L52.9125 91.9326H62.4667C63.4038 91.9326 64.3025 91.5603 64.9651 90.8977C65.6277 90.235 66 89.3363 66 88.3992V72.4992C66.0004 70.4257 65.2591 68.4205 63.91 66.8459C62.462 66.3972 61.1966 65.4948 60.3007 64.2719C59.3014 63.8818 58.2394 63.6765 57.1667 63.6659H56.3893Z" fill="#1C7B37"/>
<path d="M28.0043 62.1289L32.4333 66.853L36.8624 62.1289L32.4333 58.8076L28.0043 62.1289Z" fill="#1C7B37"/>
<path d="M37.7333 66.3654L34.4579 69.8581C34.1993 70.1324 33.8877 70.3513 33.542 70.5016C33.1963 70.6518 32.8237 70.7304 32.4467 70.7323C32.0697 70.7343 31.6963 70.6597 31.349 70.5131C31.0017 70.3665 30.6879 70.1508 30.4264 69.8793L27.6139 66.876C28.7718 75.2126 32.2821 83.0464 37.7333 89.4593V66.3654Z" fill="#1C7B37"/>
<path d="M54.741 68.473C53.3766 77.1663 49.5861 85.298 43.8054 91.9326H48.5453L58.9687 77.5731L54.741 68.473Z" fill="#1C7B37"/>
<path d="M46.5666 70.7326C46.1919 70.7331 45.8208 70.6578 45.4759 70.5112C45.131 70.3645 44.8194 70.1496 44.5597 69.8793L41.2666 66.3654V89.4593C46.7297 83.0477 50.2436 75.2064 51.3932 66.8618L48.5912 69.851C48.3317 70.1283 48.0183 70.3495 47.6701 70.5011C47.3219 70.6527 46.9464 70.7315 46.5666 70.7326Z" fill="#1C7B37"/>
<path d="M21.8457 23.2516C22.699 16.4076 29.0219 11.362 37.6556 10.733C38.5046 10.6726 39.3473 10.9174 40.0318 11.4233C40.7162 11.9293 41.1974 12.6632 41.3886 13.4926C41.8956 15.4359 44.1622 16.0807 47.8334 16.8952C51.5045 17.7096 56.0749 18.7272 57.0059 23.1845C57.6147 23.3437 58.2002 23.5812 58.7478 23.8912C58.868 23.0212 58.93 22.1442 58.9333 21.2659C58.9416 18.5978 58.4003 15.9565 57.3432 13.5067C56.2862 11.0568 54.7359 8.85091 52.7891 7.02635C50.8423 5.20179 48.5406 3.79767 46.0274 2.90148C43.5143 2.00528 40.8435 1.63621 38.1815 1.81725C35.5195 1.99829 32.9233 2.72557 30.5546 3.95378C28.1859 5.18198 26.0955 6.8848 24.4137 8.95615C22.7318 11.0275 21.4945 13.423 20.7788 15.9934C20.0632 18.5638 19.8845 21.254 20.2539 23.8965C20.756 23.6169 21.2906 23.4004 21.8457 23.2516Z" fill="#1C7B37"/>
<path d="M22.699 33.5177C23.4169 33.6813 24.0654 34.0661 24.5529 34.618C25.0405 35.1698 25.3424 35.8608 25.4161 36.5935C25.7124 40.125 27.3245 43.4163 29.933 45.8151C32.5416 48.214 35.9561 49.5454 39.5 49.5454C43.0439 49.5454 46.4584 48.214 49.0669 45.8151C51.6755 43.4163 53.2876 40.125 53.5839 36.5935C53.6574 35.8609 53.959 35.1698 54.4462 34.6176C54.9333 34.0655 55.5814 33.6802 56.2992 33.516C57.0601 33.3168 57.7327 32.8695 58.2107 32.2449C58.6886 31.6203 58.9445 30.8541 58.9378 30.0677C58.9311 29.2812 58.6622 28.5195 58.1737 27.9031C57.6852 27.2868 57.0051 26.851 56.2409 26.6648C55.5746 26.5089 54.9669 26.1656 54.4894 25.6753C54.012 25.1851 53.6849 24.5684 53.5468 23.8982C53.1139 21.8242 50.8084 21.1705 47.0649 20.3384C43.3213 19.5063 39.0566 18.5576 37.9701 14.3741C37.961 14.3265 37.9369 14.2832 37.9012 14.2505C30.9211 14.7646 26.0221 18.4657 25.4285 23.6845C25.3361 24.4003 25.0267 25.0707 24.5418 25.6054C24.057 26.1401 23.4201 26.5135 22.7167 26.6754C21.9576 26.8691 21.2845 27.3095 20.803 27.9274C20.3215 28.5453 20.0591 29.3057 20.0568 30.089C20.0546 30.8724 20.3128 31.6343 20.7907 32.2549C21.2687 32.8755 21.9393 33.3198 22.6972 33.5177H22.699Z" fill="#1C7B37"/>
<path d="M16.5333 91.9326H26.0875L17.1693 79.6507C16.8242 79.1494 16.6136 78.568 16.5576 77.962C16.5016 77.356 16.6021 76.7458 16.8496 76.1898L22.6107 63.6659H21.8333C19.4914 63.6687 17.2463 64.6003 15.5903 66.2562C13.9344 67.9122 13.0028 70.1573 13 72.4992V88.3992C13 89.3363 13.3723 90.235 14.0349 90.8977C14.6975 91.5603 15.5962 91.9326 16.5333 91.9326Z" fill="#1C7B37"/>
</g>
<defs>
<clipPath id="clip0_33_53">
<rect width="80" height="80" fill="white"/>
</clipPath>
</defs>
</svg>
