<svg width="80" height="80" viewBox="0 0 80 80" fill="none" xmlns="http://www.w3.org/2000/svg">
<g clip-path="url(#clip0_33_31)">
<path d="M24.5739 23.2087L39.6922 8.09036L44.0704 12.4686L28.9521 27.5869L24.5739 23.2087Z" fill="#1C7B37"/>
<path d="M51.2244 19.6129L46.1003 14.4902L30.9735 29.6041L36.1105 34.7397L51.2244 19.6129Z" fill="#1C7B37"/>
<path d="M26.6379 34.2254C26.6479 34.234 26.6594 34.2368 26.6694 34.2468C26.6794 34.2568 26.6808 34.2683 26.6908 34.2783L31.4507 39.0382C31.4607 39.0482 31.4735 39.051 31.4835 39.061C31.4935 39.071 31.4964 39.0839 31.505 39.0939L32.3921 39.9796C32.5704 40.1532 32.8099 40.2496 33.0588 40.248C33.3077 40.2464 33.546 40.1469 33.722 39.971L35.5077 38.1767L27.5379 30.2069L25.7337 32.0012C25.5613 32.1776 25.4647 32.4145 25.4647 32.6612C25.4647 32.9078 25.5613 33.1447 25.7337 33.3211L26.6379 34.2254Z" fill="#1C7B37"/>
<path d="M22.0795 21.6657L22.9652 20.7786L38.1591 5.58612C38.4628 5.28193 38.7036 4.9209 38.8678 4.52363C39.032 4.12637 39.1164 3.70065 39.116 3.27079C39.1157 2.84094 39.0307 2.41535 38.8659 2.01834C38.7011 1.62133 38.4597 1.26067 38.1555 0.956948C37.8513 0.653227 37.4903 0.412394 37.093 0.248201C36.6958 0.0840079 36.27 -0.000330655 35.8402 9.74212e-07C35.4103 0.000332604 34.9847 0.0853277 34.5877 0.250134C34.1907 0.41494 33.8301 0.656329 33.5263 0.960519L17.4496 17.0373C17.1457 17.3413 16.9046 17.7022 16.7402 18.0993C16.5757 18.4965 16.4911 18.9221 16.4912 19.352C16.4913 20.2201 16.8363 21.0527 17.4503 21.6664C18.0643 22.2802 18.8969 22.6249 19.765 22.6248C20.6332 22.6247 21.4657 22.2797 22.0795 21.6657Z" fill="#1C7B37"/>
<path d="M48.6774 48.2622L64.7541 32.1855C65.058 31.8816 65.2991 31.5208 65.4636 31.1237C65.628 30.7266 65.7127 30.301 65.7127 29.8712C65.7127 29.4414 65.628 29.0159 65.4636 28.6188C65.2991 28.2217 65.058 27.8609 64.7541 27.557C64.4502 27.2531 64.0894 27.012 63.6923 26.8475C63.2953 26.6831 62.8697 26.5984 62.4399 26.5984C62.0101 26.5984 61.5845 26.6831 61.1874 26.8475C60.7904 27.012 60.4296 27.2531 60.1257 27.557L52.0859 35.5954L44.0475 43.6338C43.4337 44.2477 43.089 45.0803 43.0891 45.9485C43.0892 46.8166 43.4342 47.6492 44.0482 48.2629C44.6622 48.8767 45.4948 49.2214 46.3629 49.2213C47.2311 49.2212 48.0636 48.8762 48.6774 48.2622Z" fill="#1C7B37"/>
<path d="M72.8554 62.8576C72.8554 62.0998 72.5544 61.3731 72.0186 60.8373C71.4828 60.3015 70.7561 60.0005 69.9983 60.0005H47.1417C46.384 60.0005 45.6573 60.3015 45.1215 60.8373C44.5857 61.3731 44.2847 62.0998 44.2847 62.8576V64.2861H72.8554V62.8576Z" fill="#1C7B37"/>
<path d="M50.0659 33.5754L57.6272 26.0156L53.2444 21.6329L38.132 36.7611L42.5061 41.1352L50.0659 33.5754Z" fill="#1C7B37"/>
<path d="M0 75.7144H79.9995V80H0V75.7144Z" fill="#1C7B37"/>
<path d="M1.98567 65.7146C2.24796 65.7185 2.50817 65.6677 2.74971 65.5654C2.99125 65.463 3.20881 65.3115 3.38849 65.1204L28.4479 40.0753L25.6537 37.2868L0.598557 62.3219C0.409886 62.5043 0.259706 62.7226 0.156896 62.9641C0.0540871 63.2055 0.000736636 63.4651 0 63.7275C0.000945184 63.9846 0.0535313 64.2388 0.154636 64.4751C0.25574 64.7114 0.403301 64.925 0.588557 65.1032C0.767946 65.2944 0.984264 65.4471 1.22441 65.5522C1.46456 65.6573 1.72354 65.7126 1.98567 65.7146Z" fill="#1C7B37"/>
<path d="M77.141 68.5717C77.141 68.1928 76.9905 67.8295 76.7226 67.5616C76.4547 67.2937 76.0913 67.1432 75.7124 67.1432H41.4276C41.0487 67.1432 40.6853 67.2937 40.4174 67.5616C40.1495 67.8295 39.999 68.1928 39.999 68.5717V72.8573H77.141V68.5717Z" fill="#1C7B37"/>
</g>
<defs>
<clipPath id="clip0_33_31">
<rect width="80" height="80" fill="white"/>
</clipPath>
</defs>
</svg>
