<svg width="123" height="106" viewBox="0 0 123 106" fill="none" xmlns="http://www.w3.org/2000/svg">
<path d="M104.945 1.05487C103.538 -0.351622 101.257 -0.351622 99.8505 1.05487C98.4438 2.4616 98.444 4.74243 99.8505 6.14892C110.102 16.3992 115.747 30.0278 115.747 44.5247C115.747 46.514 117.359 48.1267 119.349 48.1267C121.338 48.1267 122.951 46.514 122.951 44.5247C122.951 28.1035 116.556 12.6655 104.945 1.05487Z" fill="#1C7B37"/>
<path d="M23.0996 1.05508C21.6929 -0.35141 19.4123 -0.35165 18.0056 1.05508C6.3944 12.6667 0 28.1045 0 44.5246C0 46.5139 1.61277 48.1267 3.60207 48.1267C5.59137 48.1267 7.20414 46.5139 7.20414 44.5246C7.20414 30.0287 12.8493 16.4001 23.0996 6.14937C24.5063 4.74264 24.5063 2.46181 23.0996 1.05508Z" fill="#1C7B37"/>
<path d="M88.937 11.9663C87.5303 13.373 87.5305 15.6536 88.937 17.0604C96.2733 24.3961 100.313 34.1496 100.313 44.5245C100.313 46.5138 101.926 48.1265 103.915 48.1265C105.905 48.1265 107.517 46.5138 107.517 44.5245C107.517 32.2253 102.728 20.6624 94.0311 11.9661C92.6244 10.5598 90.3438 10.5598 88.937 11.9663Z" fill="#1C7B37"/>
<path d="M34.0117 11.9679C32.605 10.5614 30.3242 10.5614 28.9177 11.9681C20.2221 20.665 15.433 32.2269 15.433 44.5244C15.433 46.5137 17.0458 48.1265 19.0351 48.1265C21.0244 48.1265 22.6371 46.5137 22.6371 44.5244C22.6371 34.1511 26.677 24.3982 34.0122 17.062C35.4187 15.6552 35.4185 13.3746 34.0117 11.9679Z" fill="#1C7B37"/>
<path d="M92.085 70.6817V52.241C92.085 45.5145 89.9434 39.1318 85.8918 33.7828C82.5056 29.3121 77.8876 25.8198 72.6989 23.7649C71.9768 18.2151 67.2189 13.9149 61.4753 13.9149C55.7317 13.9149 50.9734 18.2149 50.2513 23.7649C45.0628 25.82 40.4447 29.3124 37.0586 33.7828C33.0069 39.1318 30.8654 45.5145 30.8654 52.241V70.6817L23.5294 85.3541C22.9711 86.4707 23.0309 87.7968 23.6872 88.8587C24.3435 89.9206 25.5029 90.567 26.7514 90.567H42.7863C44.4752 99.346 52.2108 106 61.4751 106C70.7391 106 78.4747 99.346 80.1633 90.567H96.1993C97.4478 90.567 98.6071 89.9206 99.2634 88.8587C99.9197 87.7968 99.9793 86.4707 99.4212 85.3541L92.085 70.6817ZM61.4753 98.7958C56.2072 98.7958 51.7322 95.3347 50.2049 90.567H72.7455C71.2182 95.3347 66.7435 98.7958 61.4753 98.7958ZM76.908 83.3629H46.0424H32.5797L37.6896 73.1428C37.9399 72.6426 38.0698 72.0913 38.0698 71.532V52.241C38.0698 41.9648 44.9437 32.7411 54.7863 29.8109C56.3135 29.3561 57.3605 27.952 57.3605 26.3587V25.2334C57.3605 22.9648 59.2065 21.1191 61.4753 21.1191C63.7439 21.1191 65.5896 22.9648 65.5896 25.2334V26.3587C65.5896 27.9522 66.6366 29.3563 68.1639 29.8109C78.0064 32.7411 84.8809 41.9645 84.8809 52.241V71.532C84.8809 72.0913 85.011 72.6426 85.261 73.1428L90.3709 83.3629H76.908Z" fill="#1C7B37"/>
</svg>
